<svg width="24" height="24" viewBox="0 0 24 24" fill="none" xmlns="http://www.w3.org/2000/svg">
<g clip-path="url(#clip0_1330_6462)">
<path d="M22.5 7.50001H23.625V6.75001H22.7512L20.9869 2.46488C20.7334 1.84576 20.3011 1.31626 19.7452 0.944012C19.1893 0.571761 18.5351 0.373658 17.8661 0.375007H11.7574C11.1937 0.373931 10.6388 0.5145 10.1437 0.783805C9.64849 1.05311 9.22892 1.44252 8.9235 1.91626L5.7615 6.80288L0.64725 8.26463C0.568845 8.28691 0.499843 8.33414 0.450711 8.39918C0.401579 8.46421 0.374998 8.5435 0.375 8.62501V13.5C0.375 13.5995 0.414509 13.6948 0.484835 13.7652C0.555161 13.8355 0.650544 13.875 0.75 13.875H2.64713C2.83425 15.5599 4.26562 16.875 6 16.875C7.73438 16.875 9.16575 15.5599 9.35287 13.875H10.5495L10.752 14.1791C11.3231 15.0356 11.625 16.0328 11.625 17.0625C11.625 18.0923 11.3231 19.0894 10.752 19.9459L10.4782 20.3569C10.2472 20.7034 10.1254 21.1069 10.1254 21.5228C10.1258 22.0801 10.3473 22.6144 10.7413 23.0086C11.1353 23.4027 11.6696 23.6244 12.2269 23.625C12.6431 23.625 13.0466 23.5028 13.3927 23.2721L13.6478 23.1023C14.0678 22.8239 14.5223 22.6011 14.9996 22.4396V23.625H15.7496V22.125C15.7496 21.9998 15.687 21.8828 15.5828 21.813L13.5 20.4244V19.125C13.5043 19.0285 13.5457 18.9373 13.6156 18.8705C13.6854 18.8037 13.7783 18.7664 13.875 18.7664C13.9717 18.7664 14.0646 18.8037 14.1344 18.8705C14.2043 18.9373 14.2457 19.0285 14.25 19.125V20.25H15V15.375C15.0043 15.2785 15.0457 15.1873 15.1156 15.1205C15.1854 15.0537 15.2783 15.0164 15.375 15.0164C15.4717 15.0164 15.5646 15.0537 15.6344 15.1205C15.7043 15.1873 15.7457 15.2785 15.75 15.375V18H16.5V14.625C16.5043 14.5285 16.5457 14.4373 16.6156 14.3705C16.6854 14.3037 16.7783 14.2664 16.875 14.2664C16.9717 14.2664 17.0646 14.3037 17.1344 14.3705C17.2043 14.4373 17.2457 14.5285 17.25 14.625V18H18V15.375C18.0043 15.2785 18.0457 15.1873 18.1156 15.1205C18.1854 15.0537 18.2783 15.0164 18.375 15.0164C18.4717 15.0164 18.5646 15.0537 18.6344 15.1205C18.7043 15.1873 18.7457 15.2785 18.75 15.375V18H19.5V16.875C19.5043 16.7785 19.5457 16.6873 19.6156 16.6205C19.6854 16.5537 19.7783 16.5164 19.875 16.5164C19.9717 16.5164 20.0646 16.5537 20.1344 16.6205C20.2043 16.6873 20.2457 16.7785 20.25 16.875V20.8448L19.6099 21.4849C19.575 21.5197 19.5473 21.561 19.5285 21.6065C19.5096 21.652 19.4999 21.7008 19.5 21.75V23.625H20.25V23.2005L20.3569 23.2718C20.702 23.5024 21.108 23.6254 21.5231 23.625C22.0804 23.6243 22.6146 23.4026 23.0086 23.0086C23.4026 22.6146 23.6243 22.0804 23.625 21.5231C23.625 21.1069 23.5031 20.7038 23.2721 20.3573L22.9984 19.9463C22.4269 19.0894 22.125 18.0923 22.125 17.0625C22.125 16.0328 22.4269 15.0356 22.998 14.1791L23.2717 13.7681C23.5028 13.4216 23.6246 13.0181 23.6246 12.6023C23.6242 12.045 23.4027 11.5106 23.0087 11.1164C22.6147 10.7223 22.0804 10.5006 21.5231 10.5C21.1069 10.5 20.7034 10.6223 20.3573 10.8529L20.1022 11.0228C19.1434 11.6621 18.0274 12 16.875 12C15.7226 12 14.6066 11.6621 13.6481 11.0231L13.3931 10.8533C13.048 10.6226 12.642 10.4996 12.2269 10.5C11.6696 10.5007 11.1354 10.7224 10.7414 11.1164C10.3474 11.5104 10.1257 12.0446 10.125 12.6019C10.125 12.78 10.152 12.9548 10.1955 13.125H9.35287C9.16575 11.4401 7.73438 10.125 6 10.125C4.26562 10.125 2.83425 11.4401 2.64713 13.125H1.125V10.875H2.25C2.34946 10.875 2.44484 10.8355 2.51516 10.7652C2.58549 10.6948 2.625 10.5995 2.625 10.5V8.47913L6.10275 7.48538C6.19008 7.46061 6.26539 7.40489 6.31463 7.32863L9.55313 2.32388C9.79064 1.95534 10.117 1.65241 10.5021 1.44292C10.8873 1.23343 11.3189 1.12411 11.7574 1.12501H17.8661C18.3865 1.1239 18.8954 1.27797 19.3278 1.56754C19.7602 1.8571 20.0964 2.26902 20.2935 2.75063L22.1535 7.26788C22.1817 7.33656 22.2298 7.39529 22.2915 7.43662C22.3532 7.47795 22.4257 7.50001 22.5 7.50001ZM12.2269 11.25C12.4946 11.25 12.7537 11.3284 12.9769 11.4769L13.2319 11.6468C14.3145 12.3686 15.5741 12.75 16.875 12.75C18.1759 12.75 19.4355 12.3686 20.5181 11.6471L20.7731 11.4773C21.0332 11.3047 21.345 11.2275 21.6556 11.2586C21.9661 11.2897 22.2564 11.4273 22.4771 11.648C22.6978 11.8686 22.8354 12.1589 22.8666 12.4694C22.8978 12.78 22.8206 13.0917 22.6481 13.3519L22.3744 13.7629C21.7204 14.7431 21.375 15.8839 21.375 17.0625C21.375 18.2411 21.7204 19.3819 22.374 20.3621L22.6478 20.7731C22.8203 21.0332 22.8975 21.345 22.8664 21.6556C22.8353 21.9661 22.6977 22.2564 22.4771 22.4771C22.2564 22.6978 21.9662 22.8354 21.6556 22.8666C21.345 22.8978 21.0333 22.8206 20.7731 22.6481L20.5181 22.4783C20.4307 22.4201 20.3396 22.3688 20.25 22.3151V21.9056L20.8901 21.2655C20.9606 21.195 21 21.0994 21 21V16.875C21 16.2548 20.4953 15.75 19.875 15.75C19.743 15.75 19.6178 15.777 19.5 15.819V15.375C19.5 14.7548 18.9953 14.25 18.375 14.25C18.2269 14.25 18.0863 14.2804 17.9565 14.3325C17.8271 13.8544 17.3936 13.5 16.875 13.5C16.3564 13.5 15.9233 13.8544 15.7935 14.3325C15.6606 14.2784 15.5185 14.2504 15.375 14.25C14.7548 14.25 14.25 14.7548 14.25 15.375V18.069C14.1299 18.0246 14.003 18.0012 13.875 18C13.2548 18 12.75 18.5048 12.75 19.125V20.625C12.75 20.7503 12.8126 20.8673 12.9169 20.937L14.343 21.8876C13.956 22.0496 13.5829 22.2439 13.2319 22.4779L12.9769 22.6478C12.7168 22.8203 12.405 22.8975 12.0944 22.8664C11.7839 22.8353 11.4936 22.6977 11.2729 22.4771C11.0522 22.2564 10.9146 21.9662 10.8834 21.6556C10.8522 21.3451 10.9294 21.0333 11.1019 20.7731L11.3756 20.3621C12.0296 19.3819 12.375 18.2411 12.375 17.0625C12.375 15.8839 12.0296 14.7431 11.376 13.7629L11.1023 13.3519C10.9668 13.1482 10.889 12.9117 10.8773 12.6674C10.8656 12.4231 10.9204 12.1802 11.0358 11.9645C11.1512 11.7488 11.3229 11.5685 11.5326 11.4427C11.7424 11.3169 11.9823 11.2503 12.2269 11.25ZM6 10.875C7.44712 10.875 8.625 12.0525 8.625 13.5C8.625 14.9475 7.44712 16.125 6 16.125C4.55288 16.125 3.375 14.9475 3.375 13.5C3.375 12.0525 4.55288 10.875 6 10.875ZM1.875 10.125H1.125V8.90776L1.875 8.69363V10.125Z" fill="#918FA8"/>
<path d="M6 15.375C7.03388 15.375 7.875 14.5339 7.875 13.5C7.875 12.4661 7.03388 11.625 6 11.625C4.96613 11.625 4.125 12.4661 4.125 13.5C4.125 14.5339 4.96613 15.375 6 15.375ZM6 12.375C6.62025 12.375 7.125 12.8798 7.125 13.5C7.125 14.1202 6.62025 14.625 6 14.625C5.37975 14.625 4.875 14.1202 4.875 13.5C4.875 12.8798 5.37975 12.375 6 12.375ZM20.934 7.33725C20.9686 7.28714 20.9904 7.22934 20.9975 7.16888C21.0046 7.10843 20.9968 7.04715 20.9749 6.99038L19.47 3.07687C19.3325 2.72408 19.0921 2.4208 18.78 2.20646C18.4679 1.99212 18.0985 1.87663 17.7199 1.875H12.0881C11.7676 1.87389 11.4523 1.95545 11.1725 2.11179C10.8927 2.26813 10.658 2.49397 10.491 2.7675L7.9305 6.9285C7.89554 6.98533 7.87637 7.05046 7.87498 7.11717C7.87358 7.18388 7.89001 7.24975 7.92257 7.30799C7.95513 7.36623 8.00264 7.41473 8.0602 7.44848C8.11776 7.48223 8.18328 7.50002 8.25 7.5H20.625C20.6859 7.50004 20.7458 7.48524 20.7997 7.45688C20.8535 7.42852 20.8996 7.38746 20.934 7.33725ZM11.13 3.1605C11.2302 2.99638 11.371 2.86087 11.5388 2.76706C11.7067 2.67325 11.8959 2.62432 12.0881 2.625H14.25V6.75H8.92088L11.13 3.1605ZM15 6.75V2.625H17.7199C17.947 2.62603 18.1686 2.69535 18.3559 2.82395C18.5431 2.95255 18.6874 3.13449 18.7699 3.34613L20.079 6.75H15ZM13.5 8.25H15V9H13.5V8.25ZM19.5 8.25H21V9H19.5V8.25ZM9 21C8.17275 21 7.5 20.3272 7.5 19.5C7.5 19.4005 7.46049 19.3052 7.39017 19.2348C7.31984 19.1645 7.22446 19.125 7.125 19.125C7.02554 19.125 6.93016 19.1645 6.85984 19.2348C6.78951 19.3052 6.75 19.4005 6.75 19.5C6.75 20.3272 6.07725 21 5.25 21C5.15054 21 5.05516 21.0395 4.98484 21.1098C4.91451 21.1802 4.875 21.2755 4.875 21.375C4.875 21.4745 4.91451 21.5698 4.98484 21.6402C5.05516 21.7105 5.15054 21.75 5.25 21.75C6.07725 21.75 6.75 22.4228 6.75 23.25C6.75 23.3495 6.78951 23.4448 6.85984 23.5152C6.93016 23.5855 7.02554 23.625 7.125 23.625C7.22446 23.625 7.31984 23.5855 7.39017 23.5152C7.46049 23.4448 7.5 23.3495 7.5 23.25C7.5 22.4228 8.17275 21.75 9 21.75C9.09946 21.75 9.19484 21.7105 9.26517 21.6402C9.33549 21.5698 9.375 21.4745 9.375 21.375C9.375 21.2755 9.33549 21.1802 9.26517 21.1098C9.19484 21.0395 9.09946 21 9 21ZM7.125 22.0076C6.95811 21.7569 6.74307 21.5419 6.49238 21.375C6.74307 21.2081 6.95811 20.9931 7.125 20.7424C7.29189 20.9931 7.50693 21.2081 7.75763 21.375C7.50684 21.5418 7.29179 21.7568 7.125 22.0076ZM4.5 18.375C3.67275 18.375 3 17.7022 3 16.875C3 16.7755 2.96049 16.6802 2.89017 16.6098C2.81984 16.5395 2.72446 16.5 2.625 16.5C2.52554 16.5 2.43016 16.5395 2.35984 16.6098C2.28951 16.6802 2.25 16.7755 2.25 16.875C2.25 17.7022 1.57725 18.375 0.75 18.375C0.650544 18.375 0.555161 18.4145 0.484835 18.4848C0.414509 18.5552 0.375 18.6505 0.375 18.75C0.375 18.8495 0.414509 18.9448 0.484835 19.0152C0.555161 19.0855 0.650544 19.125 0.75 19.125C1.57725 19.125 2.25 19.7978 2.25 20.625C2.25 20.7245 2.28951 20.8198 2.35984 20.8902C2.43016 20.9605 2.52554 21 2.625 21C2.72446 21 2.81984 20.9605 2.89017 20.8902C2.96049 20.8198 3 20.7245 3 20.625C3 19.7978 3.67275 19.125 4.5 19.125C4.59946 19.125 4.69484 19.0855 4.76517 19.0152C4.83549 18.9448 4.875 18.8495 4.875 18.75C4.875 18.6505 4.83549 18.5552 4.76517 18.4848C4.69484 18.4145 4.59946 18.375 4.5 18.375ZM2.625 19.3826C2.45821 19.1318 2.24316 18.9168 1.99238 18.75C2.24316 18.5832 2.45821 18.3682 2.625 18.1174C2.79179 18.3682 3.00684 18.5832 3.25763 18.75C3.00684 18.9168 2.79179 19.1318 2.625 19.3826ZM0.75 3C1.57725 3 2.25 3.67275 2.25 4.5C2.25 4.59946 2.28951 4.69484 2.35984 4.76516C2.43016 4.83549 2.52554 4.875 2.625 4.875C2.72446 4.875 2.81984 4.83549 2.89017 4.76516C2.96049 4.69484 3 4.59946 3 4.5C3 3.67275 3.67275 3 4.5 3C4.59946 3 4.69484 2.96049 4.76517 2.89016C4.83549 2.81984 4.875 2.72446 4.875 2.625C4.875 2.52554 4.83549 2.43016 4.76517 2.35984C4.69484 2.28951 4.59946 2.25 4.5 2.25C3.67275 2.25 3 1.57725 3 0.75C3 0.650544 2.96049 0.555161 2.89017 0.484835C2.81984 0.414509 2.72446 0.375 2.625 0.375C2.52554 0.375 2.43016 0.414509 2.35984 0.484835C2.28951 0.555161 2.25 0.650544 2.25 0.75C2.25 1.57725 1.57725 2.25 0.75 2.25C0.650544 2.25 0.555161 2.28951 0.484835 2.35984C0.414509 2.43016 0.375 2.52554 0.375 2.625C0.375 2.72446 0.414509 2.81984 0.484835 2.89016C0.555161 2.96049 0.650544 3 0.75 3ZM2.625 1.99238C2.79179 2.24316 3.00684 2.45821 3.25763 2.625C3.00684 2.79179 2.79179 3.00684 2.625 3.25763C2.45821 3.00684 2.24316 2.79179 1.99238 2.625C2.24316 2.45821 2.45821 2.24316 2.625 1.99238Z" fill="#918FA8"/>
</g>
<defs>
<clipPath id="clip0_1330_6462">
<rect width="24" height="24" fill="white"/>
</clipPath>
</defs>
</svg>
