<svg width="20" height="20" viewBox="0 0 20 20" fill="none" xmlns="http://www.w3.org/2000/svg">
<path d="M7.91834 20C7.27667 20 6.65167 19.7408 6.20001 19.2892L0.710841 13.8C0.484857 13.5753 0.305674 13.3081 0.18366 13.0137C0.0616463 12.7193 -0.000775391 12.4037 7.26963e-06 12.085C7.26963e-06 11.4342 0.252507 10.825 0.710841 10.3667L9.97917 1.09835C10.3265 0.748981 10.7398 0.472008 11.195 0.283475C11.6501 0.0949415 12.1382 -0.0014052 12.6308 1.54854e-05H17.9167C19.0658 1.54854e-05 20 0.935015 20 2.08335V7.36918C20 8.35585 19.6 9.32251 18.9017 10.0208L9.63334 19.2892C9.17756 19.7427 8.5613 19.9981 7.91834 20ZM12.6308 0.833349C12.2475 0.832298 11.8678 0.907247 11.5137 1.05386C11.1595 1.20047 10.8379 1.41584 10.5675 1.68752L1.30001 10.9558C0.999174 11.2567 0.833341 11.6567 0.833341 12.0817C0.833341 12.51 0.999174 12.91 1.30001 13.21L6.79001 18.7C7.38501 19.295 8.45417 19.29 9.04417 18.7L18.3125 9.43085C18.8574 8.8828 19.1643 8.14203 19.1667 7.36918V2.08335C19.1667 1.39418 18.6058 0.833349 17.9167 0.833349H12.6308Z" fill="#9896AD"/>
<path d="M15.4167 6.66667C14.2675 6.66667 13.3333 5.73167 13.3333 4.58333C13.3333 3.435 14.2675 2.5 15.4167 2.5C16.5658 2.5 17.5 3.435 17.5 4.58333C17.5 5.73167 16.5658 6.66667 15.4167 6.66667ZM15.4167 3.33333C14.7275 3.33333 14.1667 3.89417 14.1667 4.58333C14.1667 5.2725 14.7275 5.83333 15.4167 5.83333C16.1058 5.83333 16.6667 5.2725 16.6667 4.58333C16.6667 3.89417 16.1058 3.33333 15.4167 3.33333ZM8.75 15C8.63949 15 8.53351 14.9561 8.45537 14.878C8.37723 14.7998 8.33333 14.6938 8.33333 14.5833V7.91667C8.33333 7.80616 8.37723 7.70018 8.45537 7.62204C8.53351 7.5439 8.63949 7.5 8.75 7.5C8.86051 7.5 8.96649 7.5439 9.04463 7.62204C9.12277 7.70018 9.16667 7.80616 9.16667 7.91667V14.5833C9.16667 14.6938 9.12277 14.7998 9.04463 14.878C8.96649 14.9561 8.86051 15 8.75 15ZM6.25 11.6667C5.56083 11.6667 5 11.1058 5 10.4167C5 9.7275 5.56083 9.16667 6.25 9.16667C6.93917 9.16667 7.5 9.7275 7.5 10.4167C7.5 11.1058 6.93917 11.6667 6.25 11.6667ZM6.25 10C6.13927 10.0002 6.03317 10.0444 5.95503 10.1229C5.87689 10.2013 5.83311 10.3076 5.83333 10.4183C5.83355 10.5291 5.87775 10.6352 5.95621 10.7133C6.03466 10.7914 6.14094 10.8352 6.25167 10.835C6.36239 10.8348 6.4685 10.7906 6.54664 10.7121C6.62478 10.6337 6.66855 10.5274 6.66833 10.4167C6.66811 10.3059 6.62391 10.1998 6.54546 10.1217C6.46701 10.0436 6.36073 9.99978 6.25 10ZM11.25 13.3333C10.5608 13.3333 10 12.7725 10 12.0833C10 11.3942 10.5608 10.8333 11.25 10.8333C11.9392 10.8333 12.5 11.3942 12.5 12.0833C12.5 12.7725 11.9392 13.3333 11.25 13.3333ZM11.25 11.6667C11.1393 11.6669 11.0332 11.7111 10.955 11.7895C10.8769 11.868 10.8331 11.9743 10.8333 12.085C10.8336 12.1957 10.8778 12.3018 10.9562 12.38C11.0347 12.4581 11.1409 12.5019 11.2517 12.5017C11.3065 12.5016 11.3608 12.4906 11.4114 12.4696C11.462 12.4485 11.5079 12.4176 11.5466 12.3788C11.5853 12.3399 11.616 12.2939 11.6369 12.2432C11.6578 12.1925 11.6684 12.1382 11.6683 12.0833C11.6682 12.0285 11.6573 11.9742 11.6362 11.9236C11.6152 11.873 11.5843 11.8271 11.5455 11.7884C11.5066 11.7497 11.4605 11.719 11.4098 11.6981C11.3591 11.6772 11.3048 11.6666 11.25 11.6667Z" fill="#9896AD"/>
</svg>
